<svg width="791" height="289" viewBox="0 0 791 289" fill="none" xmlns="http://www.w3.org/2000/svg">
<path d="M119.908 54.3437L120.277 54.7567C119.959 60.1607 118.095 67.5606 117.795 73.2906C116.915 90.0996 114.136 133.942 117.63 148.394C118.082 150.245 118.989 151.955 120.27 153.366C125.234 158.774 130.939 150.292 133.089 146.32C140.549 132.48 151.325 111.835 169.048 110.472C174.395 109.887 179.366 112.817 180.231 118.382C181.855 128.823 167.088 126.479 160.377 128.921C150.263 132.601 137.941 145.659 142.612 157.079C148.662 171.871 159.463 186.483 168.659 199.519C171.955 204.141 176.557 208.265 180.042 212.778L180.407 213.258L175.722 215.586C172.725 215.528 170.637 215.31 167.673 214.976C163.48 214.854 158.719 214.964 154.48 214.961C159.064 206.341 159.873 204.317 154.877 195.465C148.688 184.501 144.393 172.014 138.003 161.207C136.707 159.631 133.422 159.058 131.679 159.089C122.202 159.256 117.325 170.925 115.682 179.112C114.189 186.551 115.355 198.31 119.282 205.129C120.279 206.861 125.152 211.374 126.821 212.991C116.647 215.003 111.834 215.891 101.43 215.324C109.545 197.304 108.686 180.468 109.554 161.223C110.253 145.714 112.03 132.428 109.676 116.847C107.338 101.377 108.808 83.3487 99.2584 69.9677C110.817 65.7377 112.228 63.6817 119.908 54.3437Z" fill="#E47948"/>
<path d="M244.422 111.631C248.4 112.361 256.481 121.956 258.55 125.529C259.041 138.016 258.411 151.1 258.417 163.637C258.425 180.48 256.251 197.482 265.057 212.706C261.201 214.737 259.993 214.996 255.849 215.552C254.154 215.49 253.062 215.569 251.728 214.461C248.648 211.901 245.857 199.792 246.047 196.173C246.684 184.08 248.627 171.898 248.171 159.653C247.953 153.819 245.445 152.532 241.115 148.79C246.434 142.395 247.904 139.259 247.991 130.667C248.065 123.446 246.677 118.347 244.422 111.631Z" fill="#E47948"/>
<path fill-rule="evenodd" clip-rule="evenodd" d="M119.952 44.8881C129.801 46.7011 126.422 52.4426 125.277 59.7885C124.839 62.8373 123.899 66.4593 123.807 69.5063C123.048 94.6743 119.197 124.187 122.353 148.975C126.51 144.631 128.752 140.296 131.677 135.174C139.993 120.614 155.503 100.393 174.685 104.154C185.489 106.481 188.491 117.29 185.561 126.833C183.139 132.571 172.875 132.231 167.917 133.097C158.143 134.803 149.961 139.475 147.129 149.473L146.952 150.121C149.968 164.469 174.652 202.948 187.444 210.189C185.448 196.044 184.001 183.95 192.467 171.708C201.137 159.171 212.79 155.401 226.007 149.364C230.029 147.528 234.157 145.557 237.353 142.422C246.185 133.591 241.371 109.287 226.783 109.884C224.321 109.985 222.185 111.112 220.492 112.97C218.74 117.668 228.447 126.609 222.989 135.673C216.49 146.466 196.263 148.299 194.015 134.063C190.851 114.034 217.546 97.1943 235.513 100.796C242.969 102.209 247.538 105.448 253.691 109.394C267.079 118.726 263.735 133.645 264.071 148.174C264.423 163.39 263.628 178.72 265.049 193.93C265.721 201.121 272.306 206.384 274.393 212.892C275.694 217.987 266.195 221.444 262.587 221.793C255.494 222.479 251.374 222.617 245.482 218.387C244.213 215.948 242.503 211.486 241.39 208.809C240.513 209.805 239.623 210.791 238.722 211.765C232.215 218.676 210.061 225.046 200.34 222.396C197.685 221.672 193.675 217.248 191.982 217.304C191.655 218.303 190.722 221.083 189.543 221.27C175.858 223.443 157.501 222.273 143.477 221.577C142.396 221.524 141.287 219.41 140.977 218.758C139.891 216.473 147.258 213.531 148.751 211.316C150.073 209.355 150.152 209.069 150.988 206.788L151.239 206.085C148.806 196.356 144.065 189.755 139.004 181.252C136.968 177.831 133.672 168.26 131.06 166.297C127.288 166.362 124.681 171.639 123.457 174.592C119.172 184.928 121.427 196.613 128.44 205.211C131.642 209.395 142.862 218.517 132.438 221.811C130.031 222.571 126.423 222.608 123.835 222.548C119.402 222.446 114.894 222.367 110.451 222.332C105.817 222.296 101.007 222.983 96.3985 222.645C90.9637 222.247 89.8846 220.732 88.5567 216.057C91.0296 213.781 93.8492 211.556 96.0362 209.011C107.391 195.803 105.535 123.827 103.987 104.136C103.337 95.8692 101.508 84.2889 95.9913 77.7318C94.0993 75.4828 91.4294 73.8166 89.2344 71.8686C87.8014 70.5976 86.2038 68.7646 86.2628 66.7406C86.4588 59.9969 97.9928 62.7838 102.666 60.9291C111.089 57.5862 113.73 50.487 119.952 44.8881ZM242.982 159.788C240.184 156.013 239.55 155.136 234.934 155.453C225.031 159.776 217.016 164.488 213.189 175.2C209.619 185.19 211.549 192.4 220.695 197.567C222.646 198.103 224.277 198.505 226.257 198.943C243.261 194.091 238.722 180.581 241.664 166.163L242.982 159.788Z" fill="#B95C2F"/>
<path d="M212.001 163.294L212.779 163.296L213.35 163.894C212.865 165.836 211.934 166.911 210.738 168.56C206.908 173.917 206.058 180.177 205.89 186.5C205.438 203.506 217.24 205.612 231.434 205.372C227.213 209.494 223.493 211.808 218.195 214.2C189.182 225.154 183.801 177.809 212.001 163.294Z" fill="#E47948"/>
<path d="M208.344 114.181C211.927 115.158 216.122 122.502 216.943 125.684C218.553 131.925 214.774 136.411 208.81 137.872C200.139 137.906 199.934 134.274 200.574 125.907C200.956 120.91 204.635 117.19 208.344 114.181Z" fill="#E47948"/>
<path d="M390.194 47.3737C395.062 47.3977 397.551 49.7817 397.586 54.6587C397.649 63.4097 390.306 113.81 395.173 118.258C397.671 118.074 400.834 114.231 402.657 112.41C413.111 101.962 428.756 100.908 439.224 112.885C442.813 116.962 445.438 121.795 446.903 127.026C455.626 159.32 436.08 214.624 445.483 249.436C448.834 261.844 460.805 278.696 474.103 280.661C493.754 283.565 504.36 274.06 506.777 255.124C510.215 235.921 510.233 223.645 509.342 205.11L507.449 167.447C507.045 159.592 507.375 148.765 505.816 141.329C504.572 135.394 497.704 128.657 494.353 123.678L494.693 122.664C498.999 118.171 518.446 115.295 523.831 107.574C524.787 106.204 532.016 99.7356 533.614 99.5876C540.896 101.614 536.722 107.523 536.287 112.411C534.765 129.519 530.795 148.591 531.051 165.627C531.386 187.887 535.216 209.445 534.506 231.895C534.286 233.709 534.036 235.519 533.756 237.325C531.26 252.906 520.35 269.705 507.555 279.026C495.205 288.023 472.553 289.799 457.996 287.512C445.54 285.535 439.791 278.239 432.788 270.05C412.86 246.745 419.175 231.667 423.335 203.843C425.766 187.587 427.461 164.834 426.215 147.897C425.238 134.617 415.283 119.775 400.545 131.108C394.513 135.667 393.514 142.987 392.681 149.951C390.634 167.061 387.777 186.627 396.206 202.501C398.859 207.6 406.375 213.276 405.821 219.058C405.741 219.899 404.121 221.509 403.161 221.643C390.769 223.363 377.656 222.157 365.123 222.816C362.638 222.946 360.336 224.218 357.988 223.134C356.855 221.884 356.596 220.456 356.286 218.811C355.409 214.152 360.425 215.422 364.088 210.423C369.244 203.386 371.826 193.634 373.06 185.135C373.979 178.803 373.196 170.167 373.197 163.608C373.198 147.529 371.854 131.471 371.088 115.416C370.905 111.582 371.306 100.154 370.23 97.2917C368.393 92.4077 367.201 86.0426 365.241 81.2756C363.377 76.7446 356.021 72.1257 355.447 67.8257C358.693 61.8667 364.214 64.7497 369.824 62.5337C378.233 59.2107 382.194 52.0327 390.194 47.3737Z" fill="url(#paint0_linear_1_44)"/>
<path d="M419.745 112.53C454.847 111.627 440.006 174.441 439.51 195.972C438.792 227.087 430.911 253.217 454.671 279.07C449.709 277.095 448.235 276.041 444.197 272.772C443.227 271.909 442.29 271.008 441.39 270.072C422.57 250.189 425.177 231.12 428.47 206.499C430.643 190.252 432.648 173.097 433.535 156.729C434.205 144.373 427.557 131.051 419.177 122.312C414.618 121.318 410.161 121.025 405.516 120.866C410.209 115.075 412.529 113.646 419.745 112.53Z" fill="#E47948"/>
<path d="M389.216 58.2846C391.47 61.1926 385.765 98.8847 387.151 106.383C388.341 112.827 384.048 122.124 393.203 126.916C393.037 129.591 389.373 136.83 388.47 140.208C385.489 151.345 385.332 161.062 385.088 172.393C384.712 189.865 384.085 200.86 394.914 215.241C389.014 216.126 381.975 215.91 375.93 215.892C372.914 215.937 370.346 215.692 367.346 215.441C378.697 200.399 377.528 185.387 377.563 167.609C377.661 154.794 377.598 141.978 377.376 129.164C377.052 109.638 379.349 87.1896 367.64 70.7296C378.655 67.1996 380.223 65.6296 389.216 58.2846Z" fill="#E47948"/>
<path d="M528.016 113.988C529.965 115.774 527.479 134.85 526.464 138.072C519.474 160.171 524.236 181.936 527.543 204.117C531.119 228.094 525.856 252.832 508.44 270.373L510.452 262.797C518.646 238.758 521.048 229.334 516.774 203.998C514.479 190.395 515.026 172.543 514.451 158.685C514.185 152.273 513.309 145.676 512.31 139.328C511.942 136.645 505.065 127.961 503.147 125.401C510.519 120.878 518.978 119.448 528.016 113.988Z" fill="#89824D"/>
<path d="M599.198 110.217C609.087 110.369 615.37 125.632 616.485 134.085C617.325 140.46 616.161 147.02 616.077 153.384C615.884 168.078 614.883 183.216 616.228 197.823C616.603 201.765 621.186 208.987 623.22 212.217C619.375 214.44 618.299 214.885 613.878 214.875C593.963 210.845 608.81 170.956 604.874 157.696C603.271 152.297 600.518 150.806 596.155 147.959C603.677 141.306 606.597 137.599 605.622 126.979C605.002 120.237 602.201 115.972 599.198 110.217Z" fill="#E47948"/>
<path d="M580.617 100.522C586.503 100.056 591.561 99.9966 597.181 101.475C611.181 105.083 622.974 118.897 623.859 133.377C625.087 153.47 621.093 173.819 623.288 193.833C624.054 200.821 627.663 204.556 631.254 210.195C632.519 212.513 632.657 216.813 629.833 218.161C614.514 225.472 606.334 227.551 597.283 211.011C590.53 216.038 583.99 222.084 575.537 223.225C568.428 224.184 560.763 222.898 555.033 218.401C549.389 213.954 545.735 207.453 544.871 200.32C544.229 192.595 545.047 182.888 547.77 175.656C553.166 161.325 568.582 155.055 581.35 149.067C586.66 146.329 594.877 142.105 597.604 136.537C602.128 127.299 597.437 113.493 587.854 109.421C585.991 108.562 583.066 108.29 581.243 109.302C577.911 111.193 575.253 113.24 578.101 117.073C584.495 125.678 585.674 136.118 574.695 141.31C555.177 150.54 546.088 133.048 555.567 117.035C560.745 108.286 571.01 102.891 580.617 100.522ZM598.139 175.657C598.426 166.974 602.729 156.389 589.986 157.437C575.812 161.725 566.544 174.003 569.064 189.405C569.962 194.897 571.953 197.374 577.573 197.975C595.135 197.746 597.581 192.514 598.139 175.657Z" fill="#B95C2F"/>
<path d="M566.045 166.912C566.16 169.643 563.28 177.805 562.425 181.399C560.006 191.564 563.642 199.414 572.648 204.762C580.213 209.253 583.702 206.906 591.489 204.776C588.611 208.279 585.245 212.092 581.296 214.37C571.974 220.461 568.85 217.097 560.237 211.558C558.585 210.495 555.29 209.211 554.341 207.291C548.077 194.633 553.677 175.362 565.229 167.495L566.045 166.912Z" fill="#E47948"/>
<path d="M566.178 115.729C568.66 116.663 575.48 123.451 576.278 126.233C577.624 130.926 573.914 135.509 569.467 136.583C564.458 136.663 556.911 136.889 557.338 129.659C557.715 123.289 561.525 119.593 566.178 115.729Z" fill="#E47948"/>
<path d="M59.8673 110.146C61.7393 110.879 63.6873 113.047 64.9733 114.646C77.9433 130.77 69.4243 158.658 71.0633 178.323C72.1393 191.232 71.6933 198.095 77.5673 210.038C73.7233 214.323 73.0273 215.64 67.0393 215.355C64.6713 212.872 63.9543 210.823 62.5293 207.926C54.4033 191.405 63.7913 172.88 62.3733 155.36C62.1363 152.432 57.5113 149.816 56.6863 146.726C57.3083 143.918 59.6183 141.466 61.0983 138.784C66.9383 128.2 62.5923 120.38 59.8673 110.146Z" fill="#E47948"/>
<path fill-rule="evenodd" clip-rule="evenodd" d="M42.138 98.5638C54.776 97.3758 65.8025 104.737 73.3685 114.161C82.3025 125.095 79.7547 141.678 79.0687 154.93C78.2687 170.413 75.3748 185.186 80.7747 200.44C82.5788 205.535 87.6234 207.898 86.9466 214.165C85.4476 217.235 79.4539 220.151 76.2679 221.346C62.7693 226.411 58.4175 220.288 54.6576 208.997C52.1096 211.703 49.9783 213.736 47.0443 216.019C25.5583 232.729 -0.380764 219.184 0.00423518 192.034C0.390334 147.622 44.3858 156.046 55.5658 135.395C58.0917 130.729 58.4803 123.688 56.7923 118.654C55.2103 114.022 51.8103 110.233 47.3753 108.162C41.1244 105.187 35.4801 106.141 32.5072 112.698C56.7041 141.485 12.861 155.51 6.94271 131.02C2.56974 112.922 26.312 101.075 42.138 98.5638ZM47.807 152.85C38.1021 158.08 28.0814 166.627 26.6234 178.159C26.0014 183.083 26.1745 190.55 29.1683 194.836C31.1533 197.511 32.7076 197.515 35.5716 198.493C47.6975 200.463 53.5285 194.98 54.6615 182.911C55.4044 174.995 55.9394 166.677 55.9954 158.722C53.6414 155.758 51.717 153.441 47.807 152.85Z" fill="#B95C2F"/>
<path d="M24.7214 161.792L25.2954 162.021C25.2224 163.73 23.2874 166.776 22.5744 168.716C18.4854 179.837 17.4344 191.539 23.9354 202.102C29.5224 204.298 37.3004 205.618 43.3084 206.813C40.0174 211.291 38.0794 213.25 32.8954 215.052C9.47736 216.692 3.53036 199.9 9.40736 179.977C12.0704 170.953 16.2654 166.133 24.7214 161.792Z" fill="#E47948"/>
<path d="M24.6924 111.452C25.6964 112.019 32.5814 122.138 33.5504 123.725C33.0794 130.812 32.0964 135.162 24.6014 137.199C18.3914 136.738 17.3924 136.026 14.2884 130.598C14.5574 120.537 15.9414 117.037 24.6924 111.452Z" fill="#E47948"/>
<path d="M751.215 99.0646C760.085 98.4846 771.395 106.279 774.504 114.612C776.776 120.962 776.543 126.602 776.776 133.41C777.568 156.521 768.725 185.59 780.732 206.645C783.052 210.713 789.539 212.751 790.639 218.484C789.447 223.433 781.185 222.636 777.178 222.375C771.686 222.016 742.796 223.545 739.59 220.134C737.839 213.559 747.346 209.433 749.148 202.129C750.586 197.098 753.279 190.796 753.58 185.523C754.297 172.991 754.7 158.146 753.728 145.716C752.743 133.133 743.261 120.912 729.63 127.138C724.965 129.27 723.313 139.419 722.159 144.01C718.656 159.514 717.818 184.157 722.116 199.746C723.438 204.543 736.197 215.436 733.677 219.952C730.937 224.862 718.274 222.438 713.086 222.298C702.479 222.012 692.599 224.982 683.112 218.933L683.578 218.305C687.635 212.763 693.924 209.098 696.569 203.279C702.697 189.798 702.352 145.829 697.607 132.879C688.427 127.564 687.18 126.644 696.494 120.029C701.343 116.819 706.069 114.041 710.346 110.056C712.459 108.087 714.925 104.426 716.83 102.932C720.563 100.002 723.514 111.656 724.07 113.42C732.968 106.173 739.644 100.565 751.215 99.0646Z" fill="#B95C2F"/>
<path d="M748.485 107.976C765.555 106.505 770.693 120.405 770.337 134.49C769.893 152.04 768.954 169.49 768.22 187.007C767.956 193.294 775.225 209.107 774.227 212.336C770.261 214.73 757.868 214.055 753.197 213.395C757.881 205.131 761.686 188.482 761.521 178.914C761.238 162.486 764.399 137.425 752.261 124.608C746.442 118.463 739.255 117.839 731.601 117.828C737.516 112.56 741.012 110.358 748.485 107.976Z" fill="#E47948"/>
<path d="M715.661 115.822C716.601 116.779 719.447 120.951 721.108 122.811C714.346 140.357 711.871 150.989 712.534 169.783C713.196 188.576 710.488 197.925 722.625 213.945C717.327 213.892 713.211 213.834 707.94 214.547C703.708 215.193 701.427 215.437 697.165 215.556C707.354 200.124 706.421 182.748 706.574 164.943C706.694 150.932 708.264 139.273 701.439 126.574C705.217 123.276 710.875 119.938 715.661 115.822Z" fill="#E47948"/>
<path d="M512.341 0.0896714C532.331 -1.50533 562.779 18.4797 572.243 35.9507C578.611 47.0507 580.126 60.1817 588.547 70.1717C592.673 75.0667 604.065 77.1186 605.698 83.3786C603.683 91.6896 588.563 84.4367 583.439 83.0396C575.516 81.0986 557.97 75.0247 554.791 66.4857C547.066 45.7397 540.853 33.4697 515.679 31.6437C510.505 31.2147 505.306 33.2516 500.679 34.7496C485.482 39.6706 484.644 44.5537 478.455 57.6057C472.748 68.2407 463.579 79.6727 451.796 83.6967C445.842 85.7747 439.502 85.7717 433.411 87.0367C431.782 87.3747 422.094 89.0387 422.541 85.5266C423.608 77.1516 435.594 73.5366 440.613 67.0646C449.697 55.3516 452.342 40.1667 462.107 28.8677C474.3 14.1887 493.206 1.98667 512.341 0.0896714Z" fill="#7C623A"/>
<path d="M516.305 7.45466C518.115 7.29266 520.08 7.19065 521.884 7.61265C541.113 11.8487 561.575 25.5847 568.673 44.6166C573.672 58.0196 579.326 65.7847 587.462 77.4397C581.338 75.9797 572.733 74.1367 567.568 70.6527C560.524 65.7567 559.805 56.0637 555.114 49.2007C543.327 31.9567 532.678 22.6337 511.438 24.0497C496.826 26.2407 480.222 34.2047 473.021 47.8887C470.706 52.5347 469.234 57.4747 466.699 62.0247C460.469 73.2057 451.961 76.1797 440.365 79.3737C444.173 73.0047 448.984 67.6647 452.768 61.5197C456.622 55.2597 459.462 47.6337 463.146 41.1307C470.599 27.6727 482.799 17.4737 497.366 12.5247C502.455 10.8047 510.763 8.96266 516.305 7.45466Z" fill="#89824D"/>
<path d="M311.401 101.083C323.351 100.491 327.531 104.65 338.566 106.368C341.792 106.871 348.821 104.609 352.189 106.866C354.096 110.836 350.816 118.973 350.929 123.662C350.853 126.349 354.46 137.472 351.273 139.118C342.624 143.585 327.945 129.794 328.183 121.042C328.29 117.138 328.815 116.291 329.259 113.361C326.475 109.146 310.169 108.395 306.505 112.03C291.06 127.349 312.506 137.094 321.824 143.844C338.311 155.785 359.24 169.674 355.766 192.601C354.554 200.598 350.142 210.947 343.393 215.659C334.972 221.328 319.708 224.18 309.924 222.537C301.703 220.09 283.499 213.521 280.793 205.069C274.792 186.328 286.269 168.549 307.395 177.761C313.381 180.371 315.438 186.973 317.031 192.804C315.572 198.278 313.622 200.566 309.271 204.063C300.224 211.335 309.202 216.147 317.229 215.311C328.862 214.1 334.218 200.764 332.565 190.56C332.084 187.455 330.839 184.519 328.943 182.014C323.474 174.739 302.915 161.946 295.053 156.478C289.079 152.123 283.924 146.783 283.026 139.045C280.553 117.728 290.313 103.772 311.401 101.083Z" fill="#B95C2F"/>
<path d="M294.32 118.26C294.702 121.009 294.788 123.643 295.329 126.288C297.94 139.054 308.182 142.411 317.975 148.513C320.683 149.912 322.926 154.234 325.182 155.791C336.65 163.706 351.338 173.981 351.591 189.493C351.722 197.52 345.394 204.145 339.649 209.37C338.42 210.32 335.99 211.598 334.57 212.402C353.103 180.464 319.699 167.529 298.503 152.185C287.32 144.089 285.878 129.009 294.32 118.26Z" fill="#E47948"/>
<path d="M294.436 182.987C295.19 182.96 296.056 182.92 296.806 182.976C301.02 183.288 304.91 185.355 307.526 188.674C313.797 196.575 302.917 201.547 297.738 205.227L297.318 205.531C296.224 206.468 296.211 207.894 295.574 208.286C292.806 208.438 285.719 202.11 285.299 198.67C284.303 190.518 286.089 184.886 294.436 182.987Z" fill="#E47948"/>
<path d="M338.193 113.99C339.328 113.944 345.567 113.399 345.512 115.124C345.447 117.153 343.942 130.099 343.395 130.973C339.264 128.484 338.783 128.221 335.568 124.468C335.448 119.743 334.844 117.5 338.193 113.99Z" fill="#E47948"/>
<path d="M668.249 105.394C670.455 105.441 674.938 107.478 674.906 109.193C674.326 140.266 662.629 172.934 673.636 203.537C675.115 207.649 682.866 213.519 682.309 216.44C680.61 225.351 646.762 222.128 641.932 221.816C639.408 221.496 636.254 221.08 634.219 219.566C631.96 215.449 640.244 211.842 642.839 208.512C652.997 195.477 650.615 177.278 648.91 161.973C648.064 154.388 648.07 146.792 646.832 139.281C646.119 135.133 637.803 131.529 638.49 126.608C641.26 122.796 663.987 107.664 668.249 105.394Z" fill="#B95C2F"/>
<path d="M665.85 115.36L666.699 115.476C667.99 116.621 667.798 119.957 667.564 121.668C664.549 142.736 661.574 161.515 663.042 182.914C664.145 198.996 661.291 199.912 671.619 213.867C663.884 216.029 659.873 215.585 651.825 214.607C650.618 214.143 649.534 213.623 648.36 213.086C661.549 189.144 656.117 176.874 654.369 150.737C653.624 139.61 654.596 137.545 648.731 127.424C653.694 123.003 659.933 118.303 665.85 115.36Z" fill="#E47948"/>
<path d="M515.162 53.5797C523.219 53.8367 530.16 60.2337 532.486 68.1627C536.294 81.1487 532.34 87.9007 518.169 90.8527C506.99 91.1527 500.694 88.6496 499.638 76.6516C498.341 61.9106 499.839 55.4477 515.162 53.5797Z" fill="#7C623A"/>
<path d="M513.009 61.4667C523.019 61.2657 526.386 67.9137 527.085 76.9117C527.426 81.2977 522.807 84.1377 519.071 84.8207C511.213 85.9427 508.473 84.7327 504.955 77.5977L504.751 77.1887L504.759 76.8217C504.869 69.5467 506.286 65.0657 513.009 61.4667Z" fill="#89824D"/>
<path d="M656.52 56.9876C679.582 55.4916 685.036 89.6276 664.282 94.8596C651.156 94.7866 641.375 88.0016 643.625 73.9116C645.113 64.5976 646.922 59.1066 656.52 56.9876Z" fill="#7C623A"/>
<path d="M658.175 64.0066C664.55 63.4806 668.391 65.1346 670.587 71.6556C673.1 79.1176 669.385 85.8656 662.834 88.9666C659.607 89.1366 652.574 89.4946 650.99 86.1966C646.587 77.0256 649.454 68.0056 658.175 64.0066Z" fill="#89824D"/>
<path d="M478.587 235.533C496.59 236.521 507.016 265.929 483.804 270.913L481.743 271.336C478.384 271.705 474.475 272.352 471.472 270.181C459.238 261.337 459.317 238.661 476.56 235.855L478.587 235.533Z" fill="#7C623A"/>
<path d="M479.255 242.358C485.037 242.556 487.413 245.339 488.733 250.9C490.74 259.353 487.273 264.751 479.153 266.244C470.777 266.505 469.176 261.339 470.004 253.151C470.499 248.252 474.908 244.514 479.255 242.358Z" fill="#89824D"/>
<defs>
<linearGradient id="paint0_linear_1_44" x1="351.731" y1="178.546" x2="543.161" y2="153.604" gradientUnits="userSpaceOnUse">
<stop stop-color="#D25A2B"/>
<stop offset="1" stop-color="#75643C"/>
</linearGradient>
</defs>
</svg>
