<svg xmlns="http://www.w3.org/2000/svg" viewBox="96.1 345.1 831.0 331.3" aria-hidden="true"><path fill="currentColor" d="M236.397 411.481C246.246 413.294 242.867 419.036 241.722 426.382C241.284 429.431 240.343 433.053 240.251 436.1C239.492 461.268 235.641 490.78 238.797 515.568C242.954 511.224 245.196 506.89 248.121 501.768C256.437 487.208 271.947 466.986 291.129 470.747C301.934 473.074 304.936 483.883 302.005 493.427C299.583 499.165 289.32 498.824 284.362 499.69C274.588 501.396 266.406 506.068 263.574 516.066L263.397 516.715C266.413 531.063 291.097 569.541 303.889 576.782C301.893 562.637 300.445 550.544 308.911 538.302C317.581 525.764 329.235 521.994 342.452 515.957C346.474 514.121 350.601 512.151 353.797 509.016C362.63 500.185 357.816 475.881 343.228 476.478C340.766 476.579 338.63 477.705 336.937 479.563C335.184 484.261 344.892 493.202 339.434 502.267C332.935 513.06 312.707 514.892 310.459 500.656C307.295 480.627 333.99 463.788 351.957 467.39C359.413 468.803 363.982 472.041 370.136 475.987C383.524 485.319 380.18 500.239 380.516 514.768C380.868 529.984 380.073 545.313 381.494 560.523C382.166 567.714 388.75 572.977 390.837 579.485C392.139 584.58 382.64 588.038 379.032 588.387C371.939 589.073 367.819 589.21 361.927 584.98C360.657 582.541 358.947 578.079 357.834 575.402C356.957 576.398 356.067 577.384 355.166 578.358C348.659 585.269 326.506 591.639 316.785 588.989C314.13 588.265 310.119 583.841 308.426 583.897C308.1 584.896 307.167 587.676 305.988 587.863C292.303 590.036 273.946 588.866 259.921 588.17C258.84 588.117 257.731 586.004 257.421 585.352C256.335 583.067 263.703 580.124 265.196 577.909C266.518 575.948 266.597 575.663 267.433 573.382L267.684 572.679C265.251 562.949 260.51 556.349 255.449 547.846C253.413 544.425 250.116 534.854 247.504 532.891C243.732 532.956 241.126 538.233 239.902 541.186C235.617 551.522 237.871 563.207 244.884 571.805C248.086 575.989 259.307 585.11 248.882 588.404C246.475 589.164 242.868 589.202 240.28 589.142C235.847 589.04 231.339 588.961 226.896 588.926C222.262 588.89 217.452 589.576 212.843 589.238C207.408 588.84 206.329 587.325 205.001 582.65C207.474 580.374 210.294 578.149 212.481 575.604C223.836 562.396 221.98 490.419 220.432 470.729C219.782 462.462 217.953 450.882 212.436 444.325C210.544 442.076 207.874 440.41 205.679 438.462C204.246 437.191 202.648 435.358 202.707 433.334C202.903 426.59 214.438 429.377 219.111 427.522C227.534 424.179 230.175 417.08 236.397 411.481Z"></path><path fill="#E47948" d="M236.353 420.937L236.722 421.35C236.404 426.754 234.54 434.154 234.24 439.884C233.36 456.693 230.581 500.535 234.075 514.987C234.527 516.838 235.434 518.548 236.715 519.959C241.679 525.367 247.384 516.885 249.534 512.913C256.994 499.073 267.77 478.428 285.493 477.065C290.84 476.48 295.811 479.41 296.676 484.975C298.3 495.416 283.533 493.072 276.822 495.514C266.708 499.194 254.386 512.252 259.057 523.672C265.107 538.464 275.908 553.076 285.104 566.112C288.4 570.734 293.002 574.858 296.487 579.371L296.852 579.851L292.167 582.179C289.17 582.121 287.082 581.903 284.118 581.569C279.925 581.447 275.164 581.557 270.925 581.554C275.509 572.934 276.318 570.91 271.322 562.058C265.133 551.094 260.838 538.607 254.448 527.8C253.152 526.224 249.867 525.651 248.124 525.682C238.647 525.849 233.77 537.518 232.127 545.705C230.634 553.144 231.8 564.903 235.727 571.722C236.724 573.454 241.597 577.967 243.266 579.584C233.092 581.596 228.279 582.484 217.875 581.917C225.99 563.897 225.131 547.061 225.999 527.816C226.698 512.307 228.475 499.021 226.121 483.44C223.783 467.97 225.253 449.942 215.703 436.561C227.262 432.331 228.673 430.275 236.353 420.937Z"></path><path fill="#E47948" d="M360.867 478.224C364.845 478.954 372.926 488.549 374.995 492.122C375.486 504.609 374.856 517.693 374.862 530.23C374.87 547.073 372.696 564.075 381.502 579.299C377.646 581.33 376.438 581.589 372.294 582.145C370.599 582.083 369.507 582.162 368.173 581.054C365.093 578.494 362.302 566.385 362.492 562.766C363.129 550.673 365.072 538.491 364.616 526.246C364.398 520.412 361.89 519.125 357.56 515.383C362.879 508.988 364.349 505.852 364.436 497.26C364.51 490.039 363.122 484.94 360.867 478.224Z"></path><path fill="#FCFCFB" d="M351.378 522.046C355.995 521.729 356.628 522.606 359.427 526.382L358.109 532.757C355.167 547.175 359.706 560.684 342.702 565.536C340.722 565.098 339.091 564.696 337.14 564.16C327.994 558.993 326.063 551.783 329.633 541.793C333.46 531.081 341.475 526.369 351.378 522.046Z"></path><path fill="#E47948" d="M328.446 529.887L329.224 529.889L329.795 530.487C329.31 532.429 328.379 533.504 327.183 535.153C323.353 540.51 322.503 546.77 322.335 553.093C321.883 570.099 333.685 572.205 347.879 571.965C343.658 576.087 339.938 578.401 334.64 580.793C305.627 591.747 300.246 544.402 328.446 529.887Z"></path><path fill="#E47948" d="M324.789 480.774C328.372 481.751 332.567 489.095 333.388 492.277C334.998 498.518 331.219 503.004 325.255 504.465C316.584 504.499 316.379 500.867 317.019 492.5C317.401 487.503 321.08 483.783 324.789 480.774Z"></path><defs><linearGradient id="gradient_0" gradientUnits="userSpaceOnUse" x1="468.17615" y1="545.13898" x2="659.60541" y2="520.19733"><stop offset="0" stop-color="#D25A2B"></stop><stop offset="1" stop-color="#75643C"></stop></linearGradient></defs><path fill="url(#gradient_0)" d="M506.639 413.967C511.507 413.991 513.996 416.375 514.031 421.252C514.094 430.003 506.751 480.403 511.618 484.851C514.116 484.667 517.279 480.824 519.102 479.003C529.556 468.555 545.201 467.501 555.669 479.478C559.258 483.555 561.883 488.388 563.348 493.619C572.071 525.913 552.525 581.217 561.928 616.029C565.279 628.437 577.25 645.289 590.548 647.254C610.199 650.158 620.805 640.653 623.222 621.717C626.66 602.514 626.678 590.238 625.787 571.703L623.894 534.04C623.49 526.185 623.82 515.358 622.261 507.922C621.017 501.987 614.149 495.25 610.798 490.271L611.138 489.257C615.444 484.764 634.891 481.888 640.276 474.167C641.232 472.797 648.461 466.329 650.059 466.181C657.341 468.207 653.167 474.116 652.732 479.004C651.21 496.112 647.24 515.184 647.496 532.22C647.831 554.48 651.661 576.038 650.951 598.488C650.731 600.302 650.481 602.112 650.201 603.918C647.705 619.499 636.795 636.298 624 645.619C611.65 654.616 588.998 656.392 574.441 654.105C561.985 652.128 556.236 644.832 549.233 636.643C529.305 613.338 535.62 598.26 539.78 570.436C542.211 554.18 543.906 531.427 542.66 514.49C541.683 501.21 531.728 486.368 516.99 497.701C510.958 502.26 509.959 509.58 509.126 516.544C507.079 533.654 504.222 553.22 512.651 569.094C515.304 574.193 522.82 579.869 522.266 585.651C522.186 586.492 520.566 588.102 519.606 588.236C507.214 589.956 494.101 588.75 481.568 589.409C479.083 589.539 476.781 590.811 474.433 589.727C473.3 588.477 473.041 587.049 472.731 585.404C471.854 580.745 476.87 582.015 480.533 577.016C485.689 569.979 488.271 560.227 489.505 551.728C490.424 545.396 489.641 536.76 489.642 530.201C489.643 514.122 488.299 498.064 487.533 482.009C487.35 478.175 487.751 466.747 486.675 463.885C484.838 459.001 483.646 452.636 481.686 447.869C479.822 443.338 472.466 438.719 471.892 434.419C475.138 428.46 480.659 431.343 486.269 429.127C494.678 425.804 498.639 418.626 506.639 413.967Z"></path><path fill="#E47948" d="M536.19 479.123C571.292 478.22 556.451 541.034 555.955 562.565C555.237 593.68 547.356 619.81 571.116 645.663C566.154 643.688 564.68 642.634 560.642 639.365C559.672 638.502 558.735 637.601 557.835 636.665C539.015 616.782 541.622 597.713 544.915 573.092C547.088 556.845 549.093 539.69 549.98 523.322C550.65 510.966 544.002 497.644 535.622 488.905C531.063 487.911 526.606 487.618 521.961 487.459C526.654 481.668 528.974 480.239 536.19 479.123Z"></path><path fill="#E47948" d="M505.661 424.878C507.915 427.786 502.21 465.478 503.596 472.976C504.786 479.42 500.493 488.717 509.648 493.509C509.482 496.184 505.818 503.423 504.915 506.801C501.934 517.938 501.777 527.655 501.533 538.986C501.157 556.458 500.53 567.453 511.359 581.834C505.459 582.719 498.42 582.503 492.375 582.485C489.359 582.53 486.791 582.285 483.791 582.034C495.142 566.992 493.973 551.98 494.008 534.202C494.106 521.387 494.043 508.571 493.821 495.757C493.497 476.231 495.794 453.783 484.085 437.323C495.1 433.793 496.668 432.223 505.661 424.878Z"></path><path fill="#89824D" d="M644.461 480.581C646.41 482.367 643.924 501.443 642.909 504.665C635.919 526.764 640.681 548.529 643.988 570.71C647.564 594.687 642.301 619.425 624.885 636.966L626.897 629.39C635.091 605.351 637.493 595.927 633.219 570.591C630.924 556.988 631.471 539.136 630.896 525.278C630.63 518.866 629.754 512.269 628.755 505.921C628.387 503.238 621.51 494.554 619.592 491.994C626.964 487.471 635.423 486.041 644.461 480.581Z"></path><path fill="currentColor" d="M697.062 467.116C702.948 466.65 708.006 466.59 713.626 468.068C727.626 471.676 739.418 485.49 740.303 499.97C741.532 520.063 737.538 540.412 739.733 560.426C740.499 567.414 744.108 571.15 747.699 576.789C748.964 579.107 749.102 583.407 746.278 584.755C730.959 592.066 722.779 594.145 713.728 577.604C706.975 582.631 700.435 588.678 691.982 589.818C684.873 590.777 677.208 589.492 671.478 584.995C665.834 580.548 662.18 574.047 661.316 566.914C660.674 559.189 661.492 549.482 664.215 542.25C669.611 527.919 685.027 521.649 697.795 515.661C703.105 512.923 711.322 508.699 714.049 503.131C718.573 493.893 713.882 480.086 704.299 476.014C702.436 475.155 699.511 474.883 697.688 475.895C694.356 477.786 691.698 479.834 694.546 483.667C700.94 492.272 702.119 502.712 691.14 507.904C671.622 517.134 662.532 499.642 672.011 483.629C677.189 474.88 687.454 469.485 697.062 467.116Z"></path><path fill="#E47948" d="M715.643 476.81C725.532 476.962 731.815 492.225 732.93 500.678C733.77 507.053 732.606 513.613 732.522 519.977C732.329 534.671 731.328 549.809 732.673 564.416C733.048 568.358 737.631 575.58 739.665 578.81C735.82 581.033 734.744 581.478 730.323 581.468C710.408 577.438 725.255 537.549 721.319 524.289C719.716 518.89 716.963 517.399 712.6 514.552C720.122 507.899 723.042 504.192 722.067 493.572C721.447 486.83 718.646 482.565 715.643 476.81Z"></path><path fill="#FCFCFB" d="M706.43 524.031C719.174 522.982 714.871 533.568 714.584 542.251C714.026 559.108 711.58 564.34 694.018 564.568C688.398 563.967 686.407 561.491 685.509 555.999C682.989 540.597 692.256 528.319 706.43 524.031Z"></path><path fill="#E47948" d="M682.49 533.505C682.605 536.236 679.725 544.398 678.87 547.992C676.451 558.157 680.087 566.007 689.093 571.355C696.658 575.846 700.147 573.499 707.934 571.369C705.056 574.872 701.69 578.685 697.741 580.963C688.419 587.054 685.295 583.69 676.682 578.151C675.03 577.088 671.735 575.804 670.786 573.884C664.522 561.226 670.122 541.955 681.674 534.088L682.49 533.505Z"></path><path fill="#E47948" d="M682.623 482.322C685.105 483.256 691.925 490.044 692.723 492.826C694.069 497.519 690.359 502.102 685.912 503.176C680.903 503.256 673.356 503.482 673.783 496.252C674.16 489.882 677.97 486.186 682.623 482.322Z"></path><path fill="currentColor" d="M158.583 465.157C171.221 463.969 182.247 471.331 189.813 480.755C198.747 491.689 196.199 508.271 195.513 521.523C194.713 537.006 191.819 551.779 197.219 567.033C199.023 572.128 204.068 574.491 203.391 580.759C201.892 583.829 195.899 586.744 192.713 587.939C179.214 593.004 174.862 586.882 171.102 575.591C168.554 578.297 166.423 580.329 163.489 582.612C142.003 599.322 116.064 585.778 116.449 558.627C116.835 514.215 160.83 522.639 172.01 501.988C174.536 497.322 174.925 490.281 173.237 485.247C171.655 480.615 168.255 476.827 163.82 474.756C157.569 471.781 151.925 472.734 148.952 479.291C173.149 508.079 129.305 522.104 123.387 497.613C119.014 479.515 142.757 467.668 158.583 465.157Z"></path><path fill="#E47948" d="M176.312 476.739C178.184 477.472 180.132 479.64 181.418 481.239C194.388 497.363 185.869 525.251 187.508 544.916C188.584 557.825 188.138 564.688 194.012 576.631C190.168 580.916 189.472 582.233 183.484 581.948C181.116 579.465 180.399 577.416 178.974 574.519C170.848 557.998 180.236 539.473 178.818 521.953C178.581 519.025 173.956 516.409 173.131 513.319C173.753 510.511 176.063 508.059 177.543 505.377C183.383 494.793 179.037 486.973 176.312 476.739Z"></path><path fill="#FCFCFB" d="M164.252 519.443C168.162 520.034 170.086 522.351 172.44 525.315C172.384 533.27 171.849 541.588 171.106 549.505C169.973 561.574 164.142 567.057 152.016 565.087C149.152 564.109 147.598 564.105 145.613 561.43C142.619 557.144 142.446 549.677 143.068 544.752C144.526 533.22 154.547 524.673 164.252 519.443Z"></path><path fill="#E47948" d="M141.166 528.385L141.74 528.614C141.667 530.323 139.732 533.369 139.019 535.309C134.93 546.43 133.879 558.132 140.38 568.695C145.967 570.891 153.745 572.211 159.753 573.406C156.462 577.884 154.524 579.843 149.34 581.645C125.922 583.285 119.975 566.493 125.852 546.57C128.515 537.546 132.71 532.726 141.166 528.385Z"></path><path fill="#E47948" d="M141.137 478.045C142.141 478.612 149.026 488.731 149.995 490.318C149.524 497.405 148.541 501.755 141.046 503.792C134.836 503.331 133.837 502.619 130.733 497.191C131.002 487.13 132.386 483.63 141.137 478.045Z"></path><path fill="currentColor" d="M867.66 465.658C876.53 465.078 887.84 472.872 890.949 481.205C893.221 487.555 892.988 493.195 893.221 500.003C894.013 523.114 885.17 552.183 897.177 573.238C899.497 577.306 905.984 579.344 907.084 585.077C905.892 590.026 897.63 589.229 893.623 588.968C888.131 588.609 859.241 590.138 856.035 586.727C854.284 580.152 863.791 576.026 865.593 568.722C867.031 563.691 869.724 557.389 870.025 552.116C870.742 539.584 871.145 524.739 870.173 512.309C869.188 499.726 859.706 487.505 846.075 493.731C841.41 495.863 839.758 506.012 838.604 510.603C835.101 526.107 834.263 550.75 838.561 566.339C839.883 571.136 852.642 582.029 850.122 586.545C847.382 591.455 834.719 589.031 829.531 588.891C818.924 588.605 809.044 591.575 799.557 585.526L800.023 584.898C804.08 579.356 810.369 575.691 813.014 569.872C819.142 556.391 818.797 512.422 814.052 499.472C804.872 494.157 803.625 493.237 812.939 486.622C817.788 483.412 822.514 480.634 826.791 476.649C828.904 474.68 831.37 471.019 833.275 469.525C837.008 466.595 839.959 478.249 840.515 480.013C849.413 472.766 856.089 467.158 867.66 465.658Z"></path><path fill="#E47948" d="M864.93 474.569C882 473.098 887.138 486.998 886.782 501.083C886.338 518.633 885.399 536.083 884.665 553.6C884.401 559.887 891.67 575.7 890.672 578.929C886.706 581.323 874.313 580.648 869.642 579.988C874.326 571.724 878.131 555.075 877.966 545.507C877.683 529.079 880.844 504.018 868.706 491.201C862.887 485.056 855.7 484.432 848.046 484.421C853.961 479.153 857.457 476.951 864.93 474.569Z"></path><path fill="#E47948" d="M832.106 482.415C833.046 483.372 835.892 487.544 837.553 489.404C830.791 506.95 828.316 517.582 828.979 536.376C829.641 555.169 826.933 564.518 839.07 580.538C833.772 580.485 829.656 580.427 824.385 581.14C820.153 581.786 817.872 582.03 813.61 582.149C823.799 566.717 822.866 549.341 823.019 531.536C823.139 517.525 824.709 505.866 817.884 493.167C821.662 489.869 827.32 486.531 832.106 482.415Z"></path><path fill="#7C623A" d="M628.786 366.683C648.776 365.088 679.224 385.073 688.688 402.544C695.056 413.644 696.571 426.775 704.992 436.765C709.118 441.66 720.51 443.712 722.143 449.972C720.128 458.283 705.008 451.03 699.884 449.633C691.961 447.692 674.415 441.618 671.236 433.079C663.511 412.333 657.298 400.063 632.124 398.237C626.95 397.808 621.751 399.845 617.124 401.343C601.927 406.264 601.089 411.147 594.9 424.199C589.193 434.834 580.024 446.266 568.241 450.29C562.287 452.368 555.947 452.365 549.856 453.63C548.227 453.968 538.539 455.632 538.986 452.12C540.053 443.745 552.039 440.13 557.058 433.658C566.142 421.945 568.787 406.76 578.552 395.461C590.745 380.782 609.651 368.58 628.786 366.683Z"></path><path fill="#89824D" d="M632.75 374.048C634.56 373.886 636.525 373.784 638.329 374.206C657.558 378.442 678.02 392.178 685.118 411.21C690.117 424.613 695.771 432.378 703.907 444.033C697.783 442.573 689.178 440.73 684.013 437.246C676.969 432.35 676.25 422.657 671.559 415.794C659.772 398.55 649.123 389.227 627.883 390.643C613.271 392.834 596.667 400.798 589.466 414.482C587.151 419.128 585.679 424.068 583.144 428.618C576.914 439.799 568.406 442.773 556.81 445.967C560.618 439.598 565.429 434.258 569.213 428.113C573.067 421.853 575.907 414.227 579.591 407.724C587.044 394.266 599.244 384.067 613.811 379.118C618.9 377.398 627.208 375.556 632.75 374.048Z"></path><path fill="currentColor" d="M427.846 467.676C439.796 467.084 443.976 471.243 455.011 472.961C458.237 473.464 465.266 471.202 468.634 473.459C470.541 477.429 467.261 485.566 467.374 490.255C467.298 492.942 470.905 504.065 467.718 505.711C459.069 510.178 444.39 496.387 444.628 487.635C444.735 483.731 445.26 482.884 445.704 479.954C442.92 475.739 426.614 474.988 422.95 478.623C407.505 493.942 428.951 503.687 438.269 510.437C454.756 522.378 475.685 536.267 472.211 559.194C470.999 567.191 466.587 577.54 459.838 582.252C451.417 587.921 436.153 590.773 426.369 589.13C418.148 586.683 399.944 580.114 397.238 571.662C391.237 552.921 402.714 535.142 423.84 544.354C429.826 546.964 431.883 553.566 433.476 559.397C432.017 564.871 430.067 567.159 425.716 570.656C416.669 577.928 425.647 582.74 433.674 581.904C445.307 580.693 450.663 567.357 449.01 557.153C448.529 554.048 447.284 551.112 445.388 548.607C439.919 541.332 419.36 528.539 411.498 523.071C405.524 518.716 400.369 513.376 399.471 505.638C396.998 484.321 406.758 470.365 427.846 467.676Z"></path><path fill="#E47948" d="M410.765 484.853C411.147 487.602 411.233 490.236 411.774 492.881C414.385 505.647 424.627 509.004 434.42 515.106C437.128 516.505 439.371 520.827 441.627 522.384C453.095 530.299 467.783 540.574 468.036 556.086C468.167 564.113 461.839 570.738 456.094 575.963C454.865 576.913 452.435 578.191 451.015 578.995C469.548 547.057 436.144 534.122 414.948 518.778C403.765 510.682 402.323 495.602 410.765 484.853Z"></path><path fill="#E47948" d="M410.881 549.58C411.635 549.553 412.501 549.513 413.251 549.569C417.465 549.881 421.355 551.948 423.971 555.267C430.242 563.168 419.362 568.14 414.183 571.82L413.763 572.124C412.669 573.061 412.656 574.487 412.019 574.879C409.251 575.031 402.164 568.703 401.744 565.263C400.748 557.111 402.534 551.479 410.881 549.58Z"></path><path fill="#E47948" d="M454.638 480.583C455.773 480.537 462.012 479.992 461.957 481.717C461.892 483.746 460.387 496.692 459.84 497.566C455.709 495.077 455.228 494.814 452.013 491.061C451.893 486.336 451.289 484.093 454.638 480.583Z"></path><path fill="currentColor" d="M784.694 471.987C786.9 472.034 791.383 474.071 791.351 475.786C790.771 506.859 779.074 539.527 790.081 570.13C791.56 574.242 799.311 580.112 798.754 583.033C797.055 591.944 763.207 588.721 758.377 588.409C755.853 588.089 752.699 587.673 750.664 586.159C748.405 582.042 756.689 578.435 759.284 575.105C769.442 562.07 767.06 543.871 765.355 528.566C764.509 520.981 764.515 513.385 763.277 505.874C762.564 501.726 754.248 498.122 754.935 493.201C757.705 489.389 780.432 474.257 784.694 471.987Z"></path><path fill="#E47948" d="M782.295 481.953L783.144 482.069C784.435 483.214 784.243 486.55 784.009 488.261C780.994 509.329 778.019 528.108 779.487 549.507C780.59 565.589 777.736 566.505 788.064 580.46C780.329 582.622 776.318 582.178 768.27 581.2C767.063 580.736 765.979 580.216 764.805 579.679C777.994 555.737 772.562 543.467 770.814 517.33C770.069 506.203 771.041 504.138 765.176 494.017C770.139 489.596 776.378 484.896 782.295 481.953Z"></path><path fill="#7C623A" d="M631.607 420.173C639.664 420.43 646.605 426.827 648.931 434.756C652.739 447.742 648.785 454.494 634.614 457.446C623.435 457.746 617.139 455.243 616.083 443.245C614.786 428.504 616.284 422.041 631.607 420.173Z"></path><path fill="#89824D" d="M629.454 428.06C639.464 427.859 642.831 434.507 643.53 443.505C643.871 447.891 639.252 450.731 635.516 451.414C627.658 452.536 624.918 451.326 621.4 444.191L621.196 443.782L621.204 443.415C621.314 436.14 622.731 431.659 629.454 428.06Z"></path><path fill="#7C623A" d="M772.965 423.581C796.027 422.085 801.481 456.221 780.727 461.453C767.601 461.38 757.82 454.595 760.07 440.505C761.558 431.191 763.367 425.7 772.965 423.581Z"></path><path fill="#89824D" d="M774.62 430.6C780.995 430.074 784.836 431.728 787.032 438.249C789.545 445.711 785.83 452.459 779.279 455.56C776.052 455.73 769.019 456.088 767.435 452.79C763.032 443.619 765.899 434.599 774.62 430.6Z"></path><path fill="#7C623A" d="M595.032 602.126C613.035 603.114 623.461 632.522 600.249 637.506L598.188 637.929C594.829 638.298 590.92 638.945 587.917 636.774C575.683 627.93 575.762 605.254 593.005 602.448L595.032 602.126Z"></path><path fill="#89824D" d="M595.7 608.951C601.482 609.149 603.858 611.932 605.178 617.493C607.185 625.946 603.718 631.344 595.598 632.837C587.222 633.098 585.621 627.932 586.449 619.744C586.944 614.845 591.353 611.107 595.7 608.951Z"></path></svg>